<svg id="visual" viewBox="0 0 900 300" width="900" height="300" xmlns="http://www.w3.org/2000/svg" xmlns:xlink="http://www.w3.org/1999/xlink" version="1.1"><path d="M0 187L21.5 183.2C43 179.3 86 171.7 128.8 171.8C171.7 172 214.3 180 257.2 184.3C300 188.7 343 189.3 385.8 179.7C428.7 170 471.3 150 514.2 147.2C557 144.3 600 158.7 642.8 168C685.7 177.3 728.3 181.7 771.2 183.3C814 185 857 184 878.5 183.5L900 183L900 0L878.5 0C857 0 814 0 771.2 0C728.3 0 685.7 0 642.8 0C600 0 557 0 514.2 0C471.3 0 428.7 0 385.8 0C343 0 300 0 257.2 0C214.3 0 171.7 0 128.8 0C86 0 43 0 21.5 0L0 0Z" fill="#14c29c"></path><path d="M0 157L21.5 151.7C43 146.3 86 135.7 128.8 133.5C171.7 131.3 214.3 137.7 257.2 138.7C300 139.7 343 135.3 385.8 131.5C428.7 127.7 471.3 124.3 514.2 119C557 113.7 600 106.3 642.8 105.7C685.7 105 728.3 111 771.2 115.3C814 119.7 857 122.3 878.5 123.7L900 125L900 0L878.5 0C857 0 814 0 771.2 0C728.3 0 685.7 0 642.8 0C600 0 557 0 514.2 0C471.3 0 428.7 0 385.8 0C343 0 300 0 257.2 0C214.3 0 171.7 0 128.8 0C86 0 43 0 21.5 0L0 0Z" fill="#259277"></path><path d="M0 73L21.5 78.7C43 84.3 86 95.7 128.8 102.5C171.7 109.3 214.3 111.7 257.2 112.5C300 113.3 343 112.7 385.8 110.7C428.7 108.7 471.3 105.3 514.2 99.7C557 94 600 86 642.8 87.3C685.7 88.7 728.3 99.3 771.2 100.2C814 101 857 92 878.5 87.5L900 83L900 0L878.5 0C857 0 814 0 771.2 0C728.3 0 685.7 0 642.8 0C600 0 557 0 514.2 0C471.3 0 428.7 0 385.8 0C343 0 300 0 257.2 0C214.3 0 171.7 0 128.8 0C86 0 43 0 21.5 0L0 0Z" fill="#276554"></path><path d="M0 65L21.5 66.3C43 67.7 86 70.3 128.8 72.8C171.7 75.3 214.3 77.7 257.2 79.8C300 82 343 84 385.8 82.2C428.7 80.3 471.3 74.7 514.2 73.8C557 73 600 77 642.8 77C685.7 77 728.3 73 771.2 67.3C814 61.7 857 54.3 878.5 50.7L900 47L900 0L878.5 0C857 0 814 0 771.2 0C728.3 0 685.7 0 642.8 0C600 0 557 0 514.2 0C471.3 0 428.7 0 385.8 0C343 0 300 0 257.2 0C214.3 0 171.7 0 128.8 0C86 0 43 0 21.5 0L0 0Z" fill="#213b33"></path><path d="M0 43L21.5 40.2C43 37.3 86 31.7 128.8 32.5C171.7 33.3 214.3 40.7 257.2 45.7C300 50.7 343 53.3 385.8 48.7C428.7 44 471.3 32 514.2 32.2C557 32.3 600 44.7 642.8 51C685.7 57.3 728.3 57.7 771.2 53.5C814 49.3 857 40.7 878.5 36.3L900 32L900 0L878.5 0C857 0 814 0 771.2 0C728.3 0 685.7 0 642.8 0C600 0 557 0 514.2 0C471.3 0 428.7 0 385.8 0C343 0 300 0 257.2 0C214.3 0 171.7 0 128.8 0C86 0 43 0 21.5 0L0 0Z" fill="#151515"></path></svg>